<?xml version="1.0" standalone="no"?>
<!DOCTYPE svg PUBLIC "-//W3C//DTD SVG 20010904//EN"
 "http://www.w3.org/TR/2001/REC-SVG-20010904/DTD/svg10.dtd">
<svg version="1.0" xmlns="http://www.w3.org/2000/svg"
 width="150.000000pt" height="150.000000pt" viewBox="0 0 150.000000 150.000000"
 preserveAspectRatio="xMidYMid meet">
<metadata>
Created by potrace 1.14, written by Peter Selinger 2001-2017
</metadata>
<g transform="translate(0.000000,150.000000) scale(0.100000,-0.100000)"
fill="#000000" stroke="none">
<path d="M655 1494 c-108 -22 -138 -30 -190 -51 -190 -80 -362 -261 -424 -449
-58 -175 -51 -378 20 -540 81 -184 262 -352 445 -413 283 -94 580 -20 785 195
180 189 249 452 185 701 -73 283 -318 506 -607 552 -62 11 -173 13 -214 5z
m260 -434 c122 -61 170 -150 170 -315 0 -154 -56 -254 -173 -312 -55 -27 -64
-28 -234 -31 l-178 -4 0 352 0 352 173 -4 173 -3 69 -35z"/>
<path d="M650 750 l0 -220 78 0 c146 0 203 54 211 199 4 86 -9 138 -46 182
-37 44 -80 59 -168 59 l-75 0 0 -220z"/>
</g>
</svg>
