<?xml version="1.0" standalone="no"?>
<!DOCTYPE svg PUBLIC "-//W3C//DTD SVG 20010904//EN"
 "http://www.w3.org/TR/2001/REC-SVG-20010904/DTD/svg10.dtd">
<svg version="1.0" xmlns="http://www.w3.org/2000/svg"
 width="1424.000000pt" height="1424.000000pt" viewBox="0 0 1424.000000 1424.000000"
 preserveAspectRatio="xMidYMid meet">
<metadata>
Created by potrace 1.14, written by Peter Selinger 2001-2017
</metadata>
<g transform="translate(0.000000,1424.000000) scale(0.100000,-0.100000)"
fill="#000000" stroke="none">
<path d="M1022 7123 l3 -7118 2370 1 c2119 1 2719 5 2935 19 106 7 232 16 280
20 25 2 83 7 130 10 47 4 87 8 90 10 3 2 39 6 80 10 41 3 86 8 100 10 14 2 43
6 65 9 97 13 132 17 160 22 17 3 41 7 55 9 145 21 181 27 220 35 25 6 59 12
75 15 47 7 89 17 98 22 6 4 -48 69 -204 248 -26 30 -60 69 -169 195 -30 36
-73 85 -95 110 -22 26 -62 73 -90 104 -27 32 -55 64 -60 70 -6 6 -55 63 -109
126 -54 63 -110 129 -125 145 -57 66 -289 334 -331 384 -25 29 -54 63 -65 75
-11 12 -41 47 -67 77 -25 29 -58 68 -73 84 -14 17 -42 49 -61 71 -34 41 -35
42 -87 37 -29 -3 -667 -8 -1419 -10 -1126 -4 -1368 -2 -1369 9 -5 77 -2 4445
3 4441 6 -3 185 -208 270 -308 37 -44 152 -177 173 -199 6 -6 37 -43 69 -81
33 -39 64 -74 70 -80 6 -5 33 -37 60 -70 28 -33 68 -80 90 -105 23 -25 55 -62
71 -81 17 -19 57 -66 91 -104 33 -39 72 -83 85 -99 13 -16 29 -34 34 -40 6 -6
82 -94 170 -196 87 -102 162 -187 165 -190 3 -3 46 -52 95 -110 49 -58 100
-116 111 -130 228 -264 308 -356 313 -360 3 -3 28 -32 56 -65 27 -33 97 -114
155 -180 58 -66 128 -147 156 -180 29 -33 101 -117 160 -186 60 -69 161 -185
224 -259 63 -73 120 -138 125 -144 6 -6 37 -42 70 -81 33 -38 72 -83 87 -100
14 -16 77 -88 138 -160 62 -71 165 -190 229 -264 64 -74 163 -189 220 -255 57
-67 129 -150 160 -184 31 -35 68 -81 82 -102 20 -30 290 -349 334 -396 5 -6
33 -37 60 -69 28 -32 61 -70 74 -84 12 -14 39 -46 60 -70 20 -24 41 -49 46
-55 6 -6 37 -42 70 -81 33 -38 62 -72 65 -75 6 -6 105 -121 141 -164 13 -16
29 -34 34 -40 6 -6 53 -60 105 -121 52 -60 107 -123 121 -140 54 -62 302 -350
306 -354 8 -11 463 148 678 237 444 184 898 428 1245 668 178 123 200 139 200
149 0 6 -15 26 -33 45 -18 19 -82 91 -142 160 -61 69 -112 127 -116 130 -3 3
-90 102 -194 220 -104 118 -192 217 -195 220 -3 3 -39 43 -80 90 -41 47 -89
101 -106 120 -17 19 -87 98 -154 175 -68 77 -126 142 -129 145 -3 3 -53 59
-111 125 -58 66 -121 137 -140 159 -60 65 -62 68 -219 246 -46 52 -98 111
-116 130 -17 19 -105 118 -195 220 -191 217 -214 243 -300 340 -36 40 -73 82
-83 94 -66 75 -284 322 -346 391 -20 22 -68 76 -106 120 -39 44 -86 98 -106
120 -20 22 -74 83 -120 135 -170 193 -234 265 -244 276 -5 6 -35 39 -65 74
-30 35 -64 73 -75 84 -11 12 -67 75 -125 141 -58 66 -107 122 -110 125 -6 6
-215 242 -256 289 -39 46 -42 49 -94 106 -42 47 -151 171 -193 219 -40 45
-142 161 -381 430 -137 155 -276 312 -310 350 -33 38 -70 79 -81 92 -78 86
-77 85 -63 102 46 54 256 296 283 326 6 6 64 74 130 151 66 77 127 147 135
155 8 9 96 110 195 225 99 115 187 216 195 225 19 20 235 270 315 364 33 39
68 80 78 91 18 19 225 256 396 454 41 47 119 138 174 201 55 63 121 139 146
169 25 29 55 63 66 75 11 11 58 66 105 121 47 55 90 105 96 110 5 6 50 57 100
115 82 97 134 157 159 184 6 6 69 79 140 161 72 83 142 164 156 180 15 17 163
188 330 380 166 193 305 352 309 355 3 3 64 73 135 155 72 83 134 155 140 161
5 6 33 37 60 69 28 32 55 63 60 69 6 6 186 214 400 461 214 248 404 466 421
485 80 88 194 224 194 230 0 6 -24 24 -170 125 -284 197 -746 449 -1170 638
-189 84 -646 254 -681 253 -8 -1 -44 -35 -80 -76 -35 -41 -66 -77 -69 -80 -3
-3 -41 -48 -85 -100 -44 -52 -90 -106 -101 -120 -73 -84 -397 -466 -439 -515
-27 -33 -52 -62 -56 -65 -5 -5 -160 -186 -293 -345 -33 -38 -81 -95 -107 -125
-63 -73 -397 -465 -529 -621 -58 -68 -115 -135 -126 -149 -12 -14 -55 -63 -94
-110 -106 -124 -164 -191 -175 -204 -5 -6 -46 -54 -90 -106 -44 -52 -82 -97
-85 -100 -3 -3 -41 -48 -85 -100 -44 -52 -85 -101 -92 -108 -7 -7 -29 -34 -50
-60 -21 -26 -41 -49 -44 -52 -7 -6 -395 -461 -594 -695 -128 -152 -170 -200
-175 -205 -3 -3 -41 -48 -85 -100 -44 -52 -82 -97 -85 -100 -3 -3 -41 -48 -85
-100 -44 -52 -82 -97 -85 -100 -3 -3 -30 -34 -60 -70 -30 -36 -59 -70 -65 -76
-5 -6 -26 -30 -45 -54 -19 -24 -40 -48 -45 -54 -6 -6 -143 -166 -304 -356
-162 -190 -315 -370 -341 -400 -26 -30 -80 -93 -120 -140 -39 -47 -93 -109
-118 -138 -25 -29 -54 -65 -66 -80 -11 -15 -23 -29 -27 -32 -3 -3 -65 -75
-138 -160 -73 -85 -135 -154 -138 -153 -6 3 -12 4537 -6 4558 2 7 424 10 1306
9 1105 -1 1421 -5 1563 -17 15 -1 45 27 109 103 49 58 92 107 95 110 3 3 34
39 69 80 35 41 73 86 84 100 12 14 127 149 256 300 128 151 255 300 281 330
26 30 91 107 144 170 54 63 109 129 124 145 15 17 48 55 72 85 25 30 50 60 56
65 5 6 35 39 65 75 30 36 59 70 64 76 41 46 65 74 65 78 0 3 -24 9 -52 15 -29
6 -64 14 -78 17 -47 9 -425 73 -470 78 -25 3 -56 8 -70 10 -14 2 -54 7 -90 11
-36 4 -78 8 -95 10 -16 2 -59 7 -95 10 -36 4 -78 8 -95 10 -32 4 -134 12 -255
21 -41 3 -102 8 -135 11 -33 3 -1229 7 -2658 10 l-2597 4 2 -7118z"/>
<path d="M11129 12307 c-8 -8 -21 -23 -29 -33 -13 -16 -239 -276 -329 -379
-14 -17 -71 -82 -126 -145 -54 -63 -106 -122 -115 -131 -8 -9 -33 -38 -55 -65
-22 -26 -47 -55 -55 -64 -8 -9 -55 -63 -104 -120 -50 -58 -95 -109 -100 -115
-6 -5 -36 -39 -66 -75 -30 -36 -57 -67 -60 -70 -3 -3 -48 -54 -100 -115 -52
-60 -109 -126 -126 -145 -71 -78 -134 -156 -134 -164 0 -4 17 -29 38 -55 83
-101 176 -235 309 -447 75 -119 238 -439 299 -588 116 -282 246 -689 281 -876
2 -14 13 -63 23 -110 10 -47 26 -128 35 -180 9 -52 18 -106 20 -120 16 -86 53
-379 60 -475 3 -38 8 -86 10 -105 26 -245 27 -1044 0 -1310 -2 -19 -6 -71 -10
-115 -3 -44 -8 -92 -11 -107 -3 -14 -7 -44 -9 -66 -5 -57 -16 -139 -35 -257
-7 -38 -13 -81 -15 -95 -2 -14 -10 -59 -19 -100 -8 -41 -17 -86 -20 -100 -2
-14 -11 -55 -20 -91 -8 -37 -17 -78 -20 -90 -12 -64 -79 -299 -120 -420 -114
-345 -290 -725 -459 -994 -47 -75 -163 -243 -212 -309 -33 -43 -66 -86 -73
-96 -11 -15 -7 -24 30 -65 53 -59 67 -75 126 -144 26 -30 61 -68 77 -85 17
-17 53 -58 80 -91 28 -33 57 -66 66 -75 9 -8 81 -89 160 -180 79 -90 153 -174
164 -186 11 -11 47 -52 80 -89 75 -86 286 -325 375 -425 37 -41 103 -115 146
-165 43 -49 89 -101 101 -115 l23 -24 46 44 c51 50 156 157 224 229 207 220
478 570 639 826 25 39 59 93 77 120 17 28 48 79 68 115 21 36 45 79 55 95 91
154 246 466 330 665 34 80 66 154 71 165 30 67 133 365 184 538 61 202 135
499 162 647 3 14 13 70 24 125 10 55 21 120 25 145 3 25 8 56 10 70 24 130 60
439 71 605 3 44 7 90 9 103 23 137 23 1035 0 1282 -2 19 -6 78 -10 130 -3 52
-8 106 -10 120 -2 14 -6 52 -10 85 -15 144 -43 357 -55 420 -5 28 -13 68 -16
90 -22 145 -85 443 -130 615 -125 473 -272 872 -475 1285 -77 158 -111 222
-201 380 -25 44 -55 97 -66 117 -12 21 -54 89 -94 153 -40 64 -80 127 -88 140
-165 265 -498 672 -771 945 -136 136 -134 134 -150 117z"/>
</g>
</svg>
