<svg width="175" height="175" viewBox="0 0 175 175" fill="none" xmlns="http://www.w3.org/2000/svg">
<path d="M7.51953 4.58008C6.08398 5.0586 4.78515 6.50782 4.48437 7.97071C3.89648 10.7871 6.71289 13.6035 9.5293 13.0156C11.6484 12.5781 13.2891 10.418 13.084 8.38086C12.9336 6.94532 11.8535 5.46875 10.4863 4.79883C9.65234 4.40235 8.36719 4.30664 7.51953 4.58008Z" fill="#AFAFAF"/>
<path d="M25.0195 4.58006C22.955 5.26365 21.5605 7.53318 21.9843 9.52928C22.3261 11.1562 23.8437 12.6738 25.457 13.0156C28.1093 13.5762 30.8574 11.0742 30.584 8.38084C30.4336 6.94529 29.3535 5.46873 27.9863 4.79881C27.1523 4.40232 25.8672 4.30662 25.0195 4.58006Z" fill="#AFAFAF"/>
<path d="M42.5195 4.58008C41.084 5.0586 39.7852 6.50782 39.4844 7.97071C38.8965 10.7871 41.7129 13.6035 44.5293 13.0156C46.6484 12.5781 48.2891 10.418 48.084 8.38086C47.9336 6.94532 46.8535 5.46875 45.4863 4.79883C44.6523 4.40235 43.3672 4.30664 42.5195 4.58008Z" fill="#AFAFAF"/>
<path d="M60.0195 4.58008C58.584 5.0586 57.2852 6.50782 56.9844 7.97071C56.3965 10.7871 59.2129 13.6035 62.0293 13.0156C64.1484 12.5781 65.7891 10.418 65.584 8.38086C65.4336 6.94532 64.3535 5.46875 62.9863 4.79883C62.1523 4.40235 60.8672 4.30664 60.0195 4.58008Z" fill="#AFAFAF"/>
<path d="M77.5195 4.58008C76.084 5.0586 74.7852 6.50782 74.4844 7.97071C73.8965 10.7871 76.7129 13.6035 79.5293 13.0156C81.6484 12.5781 83.2891 10.418 83.084 8.38086C82.9336 6.94532 81.8535 5.46875 80.4863 4.79883C79.6523 4.40235 78.3672 4.30664 77.5195 4.58008Z" fill="#AFAFAF"/>
<path d="M95.0195 4.58008C93.584 5.0586 92.2852 6.50782 91.9844 7.97071C91.3965 10.7871 94.2129 13.6035 97.0293 13.0156C99.1484 12.5781 100.789 10.418 100.584 8.38086C100.434 6.94532 99.3535 5.46875 97.9863 4.79883C97.1523 4.40235 95.8672 4.30664 95.0195 4.58008Z" fill="#AFAFAF"/>
<path d="M112.52 4.58008C111.084 5.0586 109.785 6.50782 109.484 7.97071C108.896 10.7871 111.713 13.6035 114.529 13.0156C116.648 12.5781 118.289 10.418 118.084 8.38086C117.934 6.94532 116.854 5.46875 115.486 4.79883C114.652 4.40235 113.367 4.30664 112.52 4.58008Z" fill="#AFAFAF"/>
<path d="M130.02 4.58008C128.584 5.0586 127.285 6.50782 126.984 7.97071C126.396 10.7871 129.213 13.6035 132.029 13.0156C134.148 12.5781 135.789 10.418 135.584 8.38086C135.434 6.94532 134.354 5.46875 132.986 4.79883C132.152 4.40235 130.867 4.30664 130.02 4.58008Z" fill="#AFAFAF"/>
<path d="M147.52 4.58009C146.084 5.05861 144.785 6.50782 144.484 7.97072C144.143 9.57032 144.922 11.3067 146.426 12.332C147.889 13.3438 149.557 13.3574 151.033 12.3731C153.453 10.7598 153.781 7.75197 151.758 5.7422C150.596 4.56642 148.928 4.11525 147.52 4.58009Z" fill="#AFAFAF"/>
<path d="M165.02 4.58009C163.584 5.05861 162.285 6.50782 161.984 7.97072C161.643 9.57032 162.422 11.3067 163.926 12.332C165.389 13.3438 167.057 13.3574 168.533 12.3731C170.953 10.7598 171.281 7.75197 169.258 5.7422C168.096 4.56642 166.428 4.11525 165.02 4.58009Z" fill="#AFAFAF"/>
<path d="M7.51953 22.0801C6.08398 22.5586 4.78515 24.0078 4.48437 25.4707C3.89648 28.2871 6.71289 31.1035 9.5293 30.5156C11.6484 30.0781 13.2891 27.918 13.084 25.8809C12.9336 24.4453 11.8535 22.9688 10.4863 22.2988C9.65234 21.9023 8.36719 21.8066 7.51953 22.0801Z" fill="#AFAFAF"/>
<path d="M25.0195 22.0801C22.955 22.7637 21.5605 25.0332 21.9843 27.0293C22.3261 28.6562 23.8437 30.1738 25.457 30.5156C28.1093 31.0762 30.8574 28.5742 30.584 25.8808C30.4336 24.4453 29.3535 22.9687 27.9863 22.2988C27.1523 21.9023 25.8672 21.8066 25.0195 22.0801Z" fill="#AFAFAF"/>
<path d="M42.5195 22.0801C41.084 22.5586 39.7852 24.0078 39.4844 25.4707C38.8965 28.2871 41.7129 31.1035 44.5293 30.5156C46.6484 30.0781 48.2891 27.918 48.084 25.8809C47.9336 24.4453 46.8535 22.9688 45.4863 22.2988C44.6523 21.9023 43.3672 21.8066 42.5195 22.0801Z" fill="#AFAFAF"/>
<path d="M60.0195 22.0801C58.584 22.5586 57.2852 24.0078 56.9844 25.4707C56.3965 28.2871 59.2129 31.1035 62.0293 30.5156C64.1484 30.0781 65.7891 27.918 65.584 25.8809C65.4336 24.4453 64.3535 22.9688 62.9863 22.2988C62.1523 21.9023 60.8672 21.8066 60.0195 22.0801Z" fill="#AFAFAF"/>
<path d="M77.5195 22.0801C76.084 22.5586 74.7852 24.0078 74.4844 25.4707C73.8965 28.2871 76.7129 31.1035 79.5293 30.5156C81.6484 30.0781 83.2891 27.918 83.084 25.8809C82.9336 24.4453 81.8535 22.9688 80.4863 22.2988C79.6523 21.9023 78.3672 21.8066 77.5195 22.0801Z" fill="#AFAFAF"/>
<path d="M95.0195 22.0801C93.584 22.5586 92.2852 24.0078 91.9844 25.4707C91.3965 28.2871 94.2129 31.1035 97.0293 30.5156C99.1484 30.0781 100.789 27.918 100.584 25.8809C100.434 24.4453 99.3535 22.9688 97.9863 22.2988C97.1523 21.9023 95.8672 21.8066 95.0195 22.0801Z" fill="#AFAFAF"/>
<path d="M112.52 22.0801C111.084 22.5586 109.785 24.0078 109.484 25.4707C108.896 28.2871 111.713 31.1035 114.529 30.5156C116.648 30.0781 118.289 27.918 118.084 25.8809C117.934 24.4453 116.854 22.9688 115.486 22.2988C114.652 21.9023 113.367 21.8066 112.52 22.0801Z" fill="#AFAFAF"/>
<path d="M130.02 22.0801C128.584 22.5586 127.285 24.0078 126.984 25.4707C126.396 28.2871 129.213 31.1035 132.029 30.5156C134.148 30.0781 135.789 27.918 135.584 25.8809C135.434 24.4453 134.354 22.9688 132.986 22.2988C132.152 21.9023 130.867 21.8066 130.02 22.0801Z" fill="#AFAFAF"/>
<path d="M147.52 22.0801C146.084 22.5586 144.785 24.0078 144.484 25.4707C144.143 27.0703 144.922 28.8066 146.426 29.832C147.889 30.8437 149.557 30.8574 151.033 29.873C153.453 28.2597 153.781 25.2519 151.758 23.2422C150.596 22.0664 148.928 21.6152 147.52 22.0801Z" fill="#AFAFAF"/>
<path d="M165.02 22.0801C163.584 22.5586 162.285 24.0078 161.984 25.4707C161.643 27.0703 162.422 28.8066 163.926 29.832C165.389 30.8437 167.057 30.8574 168.533 29.873C170.953 28.2597 171.281 25.2519 169.258 23.2422C168.096 22.0664 166.428 21.6152 165.02 22.0801Z" fill="#AFAFAF"/>
<path d="M7.51953 39.5801C6.08398 40.0586 4.78515 41.5078 4.48437 42.9707C3.89648 45.7871 6.71289 48.6035 9.5293 48.0156C11.6484 47.5781 13.2891 45.418 13.084 43.3808C12.9336 41.9453 11.8535 40.4687 10.4863 39.7988C9.65234 39.4023 8.36719 39.3066 7.51953 39.5801Z" fill="#AFAFAF"/>
<path d="M25.0195 39.5801C23.584 40.0586 22.2852 41.5078 21.9844 42.9707C21.3965 45.7871 24.2129 48.6035 27.0293 48.0156C29.1484 47.5781 30.7891 45.418 30.584 43.3808C30.4336 41.9453 29.3535 40.4687 27.9863 39.7988C27.1523 39.4023 25.8672 39.3066 25.0195 39.5801Z" fill="#AFAFAF"/>
<path d="M42.5195 39.5801C41.084 40.0586 39.7852 41.5078 39.4844 42.9707C38.8965 45.7871 41.7129 48.6035 44.5293 48.0156C46.6484 47.5781 48.2891 45.418 48.084 43.3808C47.9336 41.9453 46.8535 40.4687 45.4863 39.7988C44.6523 39.4023 43.3672 39.3066 42.5195 39.5801Z" fill="#AFAFAF"/>
<path d="M60.0195 39.5801C58.584 40.0586 57.2852 41.5078 56.9844 42.9707C56.3965 45.7871 59.2129 48.6035 62.0293 48.0156C64.1484 47.5781 65.7891 45.418 65.584 43.3808C65.4336 41.9453 64.3535 40.4687 62.9863 39.7988C62.1523 39.4023 60.8672 39.3066 60.0195 39.5801Z" fill="#AFAFAF"/>
<path d="M77.5195 39.5801C76.084 40.0586 74.7852 41.5078 74.4844 42.9707C73.8965 45.7871 76.7129 48.6035 79.5293 48.0156C81.6484 47.5781 83.2891 45.418 83.084 43.3808C82.9336 41.9453 81.8535 40.4687 80.4863 39.7988C79.6523 39.4023 78.3672 39.3066 77.5195 39.5801Z" fill="#AFAFAF"/>
<path d="M95.0195 39.5801C93.584 40.0586 92.2852 41.5078 91.9844 42.9707C91.3965 45.7871 94.2129 48.6035 97.0293 48.0156C99.1484 47.5781 100.789 45.418 100.584 43.3808C100.434 41.9453 99.3535 40.4687 97.9863 39.7988C97.1523 39.4023 95.8672 39.3066 95.0195 39.5801Z" fill="#AFAFAF"/>
<path d="M112.52 39.5801C111.084 40.0586 109.785 41.5078 109.484 42.9707C108.896 45.7871 111.713 48.6035 114.529 48.0156C116.648 47.5781 118.289 45.418 118.084 43.3808C117.934 41.9453 116.854 40.4687 115.486 39.7988C114.652 39.4023 113.367 39.3066 112.52 39.5801Z" fill="#AFAFAF"/>
<path d="M130.02 39.5801C128.584 40.0586 127.285 41.5078 126.984 42.9707C126.396 45.7871 129.213 48.6035 132.029 48.0156C134.148 47.5781 135.789 45.418 135.584 43.3808C135.434 41.9453 134.354 40.4687 132.986 39.7988C132.152 39.4023 130.867 39.3066 130.02 39.5801Z" fill="#AFAFAF"/>
<path d="M147.52 39.5801C146.084 40.0586 144.785 41.5078 144.484 42.9707C143.896 45.7871 146.713 48.6035 149.529 48.0156C151.648 47.5781 153.289 45.418 153.084 43.3808C152.934 41.9453 151.854 40.4687 150.486 39.7988C149.652 39.4023 148.367 39.3066 147.52 39.5801Z" fill="#AFAFAF"/>
<path d="M165.02 39.5801C163.584 40.0586 162.285 41.5078 161.984 42.9707C161.396 45.7871 164.213 48.6035 167.029 48.0156C169.148 47.5781 170.789 45.418 170.584 43.3808C170.434 41.9453 169.354 40.4687 167.986 39.7988C167.152 39.4023 165.867 39.3066 165.02 39.5801Z" fill="#AFAFAF"/>
<path d="M7.51953 57.0801C6.08398 57.5586 4.78515 59.0078 4.48437 60.4707C3.89648 63.2871 6.71289 66.1035 9.5293 65.5156C11.6484 65.0781 13.2891 62.9179 13.084 60.8808C12.9336 59.4453 11.8535 57.9687 10.4863 57.2988C9.65234 56.9023 8.36719 56.8066 7.51953 57.0801Z" fill="#AFAFAF"/>
<path d="M25.0195 57.0801C23.584 57.5586 22.2852 59.0078 21.9844 60.4707C21.3965 63.2871 24.2129 66.1035 27.0293 65.5156C29.1484 65.0781 30.7891 62.9179 30.584 60.8808C30.4336 59.4453 29.3535 57.9687 27.9863 57.2988C27.1523 56.9023 25.8672 56.8066 25.0195 57.0801Z" fill="#AFAFAF"/>
<path d="M42.5195 57.0801C41.084 57.5586 39.7852 59.0078 39.4844 60.4707C38.8965 63.2871 41.7129 66.1035 44.5293 65.5156C46.6484 65.0781 48.2891 62.9179 48.084 60.8808C47.9336 59.4453 46.8535 57.9687 45.4863 57.2988C44.6523 56.9023 43.3672 56.8066 42.5195 57.0801Z" fill="#AFAFAF"/>
<path d="M60.0195 57.0801C58.584 57.5586 57.2852 59.0078 56.9844 60.4707C56.3965 63.2871 59.2129 66.1035 62.0293 65.5156C64.1484 65.0781 65.7891 62.9179 65.584 60.8808C65.4336 59.4453 64.3535 57.9687 62.9863 57.2988C62.1523 56.9023 60.8672 56.8066 60.0195 57.0801Z" fill="#AFAFAF"/>
<path d="M77.5195 57.0801C76.084 57.5586 74.7852 59.0078 74.4844 60.4707C73.8965 63.2871 76.7129 66.1035 79.5293 65.5156C81.6484 65.0781 83.2891 62.9179 83.084 60.8808C82.9336 59.4453 81.8535 57.9687 80.4863 57.2988C79.6523 56.9023 78.3672 56.8066 77.5195 57.0801Z" fill="#AFAFAF"/>
<path d="M95.0195 57.0801C93.584 57.5586 92.2852 59.0078 91.9844 60.4707C91.3965 63.2871 94.2129 66.1035 97.0293 65.5156C99.1484 65.0781 100.789 62.9179 100.584 60.8808C100.434 59.4453 99.3535 57.9687 97.9863 57.2988C97.1523 56.9023 95.8672 56.8066 95.0195 57.0801Z" fill="#AFAFAF"/>
<path d="M112.52 57.0801C111.084 57.5586 109.785 59.0078 109.484 60.4707C108.896 63.2871 111.713 66.1035 114.529 65.5156C116.648 65.0781 118.289 62.9179 118.084 60.8808C117.934 59.4453 116.854 57.9687 115.486 57.2988C114.652 56.9023 113.367 56.8066 112.52 57.0801Z" fill="#AFAFAF"/>
<path d="M130.02 57.0801C128.584 57.5586 127.285 59.0078 126.984 60.4707C126.396 63.2871 129.213 66.1035 132.029 65.5156C134.148 65.0781 135.789 62.9179 135.584 60.8808C135.434 59.4453 134.354 57.9687 132.986 57.2988C132.152 56.9023 130.867 56.8066 130.02 57.0801Z" fill="#AFAFAF"/>
<path d="M147.52 57.0801C146.084 57.5586 144.785 59.0078 144.484 60.4707C143.896 63.2871 146.713 66.1035 149.529 65.5156C151.648 65.0781 153.289 62.9179 153.084 60.8808C152.934 59.4453 151.854 57.9687 150.486 57.2988C149.652 56.9023 148.367 56.8066 147.52 57.0801Z" fill="#AFAFAF"/>
<path d="M165.02 57.0801C163.584 57.5586 162.285 59.0078 161.984 60.4707C161.396 63.2871 164.213 66.1035 167.029 65.5156C169.148 65.0781 170.789 62.9179 170.584 60.8808C170.434 59.4453 169.354 57.9687 167.986 57.2988C167.152 56.9023 165.867 56.8066 165.02 57.0801Z" fill="#AFAFAF"/>
<path d="M7.51953 74.5801C6.08398 75.0586 4.78515 76.5078 4.48437 77.9707C3.89648 80.7871 6.71289 83.6035 9.5293 83.0156C11.6484 82.5781 13.2891 80.418 13.084 78.3809C12.9336 76.9453 11.8535 75.4688 10.4863 74.7988C9.65234 74.4023 8.36719 74.3066 7.51953 74.5801Z" fill="#AFAFAF"/>
<path d="M25.0195 74.5801C23.584 75.0586 22.2852 76.5078 21.9844 77.9707C21.3965 80.7871 24.2129 83.6035 27.0293 83.0156C29.1484 82.5781 30.7891 80.418 30.584 78.3809C30.4336 76.9453 29.3535 75.4688 27.9863 74.7988C27.1523 74.4023 25.8672 74.3066 25.0195 74.5801Z" fill="#AFAFAF"/>
<path d="M42.5195 74.5801C41.084 75.0586 39.7852 76.5078 39.4844 77.9707C38.8965 80.7871 41.7129 83.6035 44.5293 83.0156C46.6484 82.5781 48.2891 80.418 48.084 78.3809C47.9336 76.9453 46.8535 75.4688 45.4863 74.7988C44.6523 74.4023 43.3672 74.3066 42.5195 74.5801Z" fill="#AFAFAF"/>
<path d="M60.0195 74.5801C58.584 75.0586 57.2852 76.5078 56.9844 77.9707C56.3965 80.7871 59.2129 83.6035 62.0293 83.0156C64.1484 82.5781 65.7891 80.418 65.584 78.3809C65.4336 76.9453 64.3535 75.4688 62.9863 74.7988C62.1523 74.4023 60.8672 74.3066 60.0195 74.5801Z" fill="#AFAFAF"/>
<path d="M77.5195 74.5801C76.084 75.0586 74.7852 76.5078 74.4844 77.9707C73.8965 80.7871 76.7129 83.6035 79.5293 83.0156C81.6484 82.5781 83.2891 80.418 83.084 78.3809C82.9336 76.9453 81.8535 75.4688 80.4863 74.7988C79.6523 74.4023 78.3672 74.3066 77.5195 74.5801Z" fill="#AFAFAF"/>
<path d="M95.0195 74.5801C93.584 75.0586 92.2852 76.5078 91.9844 77.9707C91.3965 80.7871 94.2129 83.6035 97.0293 83.0156C99.1484 82.5781 100.789 80.418 100.584 78.3809C100.434 76.9453 99.3535 75.4688 97.9863 74.7988C97.1523 74.4023 95.8672 74.3066 95.0195 74.5801Z" fill="#AFAFAF"/>
<path d="M112.52 74.5801C111.084 75.0586 109.785 76.5078 109.484 77.9707C108.896 80.7871 111.713 83.6035 114.529 83.0156C116.648 82.5781 118.289 80.418 118.084 78.3809C117.934 76.9453 116.854 75.4688 115.486 74.7988C114.652 74.4023 113.367 74.3066 112.52 74.5801Z" fill="#AFAFAF"/>
<path d="M130.02 74.5801C128.584 75.0586 127.285 76.5078 126.984 77.9707C126.396 80.7871 129.213 83.6035 132.029 83.0156C134.148 82.5781 135.789 80.418 135.584 78.3809C135.434 76.9453 134.354 75.4688 132.986 74.7988C132.152 74.4023 130.867 74.3066 130.02 74.5801Z" fill="#AFAFAF"/>
<path d="M147.52 74.5801C146.084 75.0586 144.785 76.5078 144.484 77.9707C143.896 80.7871 146.713 83.6035 149.529 83.0156C151.648 82.5781 153.289 80.418 153.084 78.3809C152.934 76.9453 151.854 75.4688 150.486 74.7988C149.652 74.4023 148.367 74.3066 147.52 74.5801Z" fill="#AFAFAF"/>
<path d="M165.02 74.5801C163.584 75.0586 162.285 76.5078 161.984 77.9707C161.396 80.7871 164.213 83.6035 167.029 83.0156C169.148 82.5781 170.789 80.418 170.584 78.3809C170.434 76.9453 169.354 75.4688 167.986 74.7988C167.152 74.4023 165.867 74.3066 165.02 74.5801Z" fill="#AFAFAF"/>
<path d="M7.51953 92.0801C6.08398 92.5586 4.78515 94.0078 4.48437 95.4707C3.89648 98.2871 6.71289 101.104 9.5293 100.516C11.6484 100.078 13.2891 97.918 13.084 95.8808C12.9336 94.4453 11.8535 92.9687 10.4863 92.2988C9.65234 91.9023 8.36719 91.8066 7.51953 92.0801Z" fill="#AFAFAF"/>
<path d="M25.0195 92.0801C23.584 92.5586 22.2852 94.0078 21.9844 95.4707C21.3965 98.2871 24.2129 101.104 27.0293 100.516C29.1484 100.078 30.7891 97.918 30.584 95.8808C30.4336 94.4453 29.3535 92.9687 27.9863 92.2988C27.1523 91.9023 25.8672 91.8066 25.0195 92.0801Z" fill="#AFAFAF"/>
<path d="M42.5195 92.0801C41.084 92.5586 39.7852 94.0078 39.4844 95.4707C38.8965 98.2871 41.7129 101.104 44.5293 100.516C46.6484 100.078 48.2891 97.918 48.084 95.8808C47.9336 94.4453 46.8535 92.9687 45.4863 92.2988C44.6523 91.9023 43.3672 91.8066 42.5195 92.0801Z" fill="#AFAFAF"/>
<path d="M60.0195 92.0801C58.584 92.5586 57.2852 94.0078 56.9844 95.4707C56.3965 98.2871 59.2129 101.104 62.0293 100.516C64.1484 100.078 65.7891 97.918 65.584 95.8808C65.4336 94.4453 64.3535 92.9687 62.9863 92.2988C62.1523 91.9023 60.8672 91.8066 60.0195 92.0801Z" fill="#AFAFAF"/>
<path d="M77.5195 92.0801C76.084 92.5586 74.7852 94.0078 74.4844 95.4707C73.8965 98.2871 76.7129 101.104 79.5293 100.516C81.6484 100.078 83.2891 97.918 83.084 95.8808C82.9336 94.4453 81.8535 92.9687 80.4863 92.2988C79.6523 91.9023 78.3672 91.8066 77.5195 92.0801Z" fill="#AFAFAF"/>
<path d="M95.0195 92.0801C93.584 92.5586 92.2852 94.0078 91.9844 95.4707C91.3965 98.2871 94.2129 101.104 97.0293 100.516C99.1484 100.078 100.789 97.918 100.584 95.8808C100.434 94.4453 99.3535 92.9687 97.9863 92.2988C97.1523 91.9023 95.8672 91.8066 95.0195 92.0801Z" fill="#AFAFAF"/>
<path d="M112.52 92.0801C111.084 92.5586 109.785 94.0078 109.484 95.4707C108.896 98.2871 111.713 101.104 114.529 100.516C116.648 100.078 118.289 97.918 118.084 95.8808C117.934 94.4453 116.854 92.9687 115.486 92.2988C114.652 91.9023 113.367 91.8066 112.52 92.0801Z" fill="#AFAFAF"/>
<path d="M130.02 92.0801C128.584 92.5586 127.285 94.0078 126.984 95.4707C126.396 98.2871 129.213 101.104 132.029 100.516C134.148 100.078 135.789 97.918 135.584 95.8808C135.434 94.4453 134.354 92.9687 132.986 92.2988C132.152 91.9023 130.867 91.8066 130.02 92.0801Z" fill="#AFAFAF"/>
<path d="M147.52 92.0801C146.084 92.5586 144.785 94.0078 144.484 95.4707C143.896 98.2871 146.713 101.104 149.529 100.516C151.648 100.078 153.289 97.918 153.084 95.8808C152.934 94.4453 151.854 92.9687 150.486 92.2988C149.652 91.9023 148.367 91.8066 147.52 92.0801Z" fill="#AFAFAF"/>
<path d="M165.02 92.0801C163.584 92.5586 162.285 94.0078 161.984 95.4707C161.396 98.2871 164.213 101.104 167.029 100.516C169.148 100.078 170.789 97.918 170.584 95.8808C170.434 94.4453 169.354 92.9687 167.986 92.2988C167.152 91.9023 165.867 91.8066 165.02 92.0801Z" fill="#AFAFAF"/>
<path d="M7.51953 109.58C6.08398 110.059 4.78515 111.508 4.48437 112.971C3.89648 115.787 6.71289 118.604 9.5293 118.016C11.6484 117.578 13.2891 115.418 13.084 113.381C12.9336 111.945 11.8535 110.469 10.4863 109.799C9.65234 109.402 8.36719 109.307 7.51953 109.58Z" fill="#AFAFAF"/>
<path d="M25.0195 109.58C23.584 110.059 22.2852 111.508 21.9844 112.971C21.3965 115.787 24.2129 118.604 27.0293 118.016C29.1484 117.578 30.7891 115.418 30.584 113.381C30.4336 111.945 29.3535 110.469 27.9863 109.799C27.1523 109.402 25.8672 109.307 25.0195 109.58Z" fill="#AFAFAF"/>
<path d="M42.5196 109.58C41.084 110.059 39.7852 111.508 39.4844 112.971C39.1426 114.57 39.9219 116.307 41.4258 117.332C42.8887 118.344 44.5567 118.357 46.0332 117.373C48.4532 115.76 48.7813 112.752 46.7578 110.742C45.5957 109.566 43.9278 109.115 42.5196 109.58Z" fill="#AFAFAF"/>
<path d="M60.0196 109.58C58.584 110.059 57.2852 111.508 56.9844 112.971C56.6426 114.57 57.4219 116.307 58.9258 117.332C60.3887 118.344 62.0567 118.357 63.5332 117.373C65.9532 115.76 66.2813 112.752 64.2578 110.742C63.0957 109.566 61.4278 109.115 60.0196 109.58Z" fill="#AFAFAF"/>
<path d="M77.5195 109.58C75.455 110.264 74.0605 112.533 74.4843 114.529C74.8261 116.156 76.3437 117.674 77.9707 118.016C80.6093 118.576 83.3574 116.074 83.084 113.381C82.9336 111.945 81.8535 110.469 80.4863 109.799C79.6523 109.402 78.3672 109.307 77.5195 109.58Z" fill="#AFAFAF"/>
<path d="M95.0195 109.58C92.955 110.264 91.5605 112.533 91.9843 114.529C92.3261 116.156 93.8437 117.674 95.4707 118.016C98.1093 118.576 100.857 116.074 100.584 113.381C100.434 111.945 99.3535 110.469 97.9863 109.799C97.1523 109.402 95.8672 109.307 95.0195 109.58Z" fill="#AFAFAF"/>
<path d="M112.519 109.58C110.455 110.264 109.061 112.533 109.484 114.529C109.826 116.156 111.344 117.674 112.971 118.016C115.609 118.576 118.357 116.074 118.084 113.381C117.934 111.945 116.853 110.469 115.486 109.799C114.652 109.402 113.367 109.307 112.519 109.58Z" fill="#AFAFAF"/>
<path d="M130.019 109.58C127.955 110.264 126.561 112.533 126.984 114.529C127.326 116.156 128.844 117.674 130.471 118.016C133.109 118.576 135.857 116.074 135.584 113.381C135.434 111.945 134.353 110.469 132.986 109.799C132.152 109.402 130.867 109.307 130.019 109.58Z" fill="#AFAFAF"/>
<path d="M147.52 109.58C146.084 110.059 144.785 111.508 144.484 112.971C143.896 115.787 146.713 118.604 149.529 118.016C151.648 117.578 153.289 115.418 153.084 113.381C152.934 111.945 151.854 110.469 150.486 109.799C149.652 109.402 148.367 109.307 147.52 109.58Z" fill="#AFAFAF"/>
<path d="M165.02 109.58C163.584 110.059 162.285 111.508 161.984 112.971C161.396 115.787 164.213 118.604 167.029 118.016C169.148 117.578 170.789 115.418 170.584 113.381C170.434 111.945 169.354 110.469 167.986 109.799C167.152 109.402 165.867 109.307 165.02 109.58Z" fill="#AFAFAF"/>
<path d="M7.51953 127.08C6.08398 127.559 4.78515 129.008 4.48437 130.471C3.89648 133.287 6.71289 136.104 9.5293 135.516C11.6484 135.078 13.2891 132.918 13.084 130.881C12.9336 129.445 11.8535 127.969 10.4863 127.299C9.65234 126.902 8.36719 126.807 7.51953 127.08Z" fill="#AFAFAF"/>
<path d="M25.0195 127.08C23.584 127.559 22.2852 129.008 21.9844 130.471C21.3965 133.287 24.2129 136.104 27.0293 135.516C29.1484 135.078 30.7891 132.918 30.584 130.881C30.4336 129.445 29.3535 127.969 27.9863 127.299C27.1523 126.902 25.8672 126.807 25.0195 127.08Z" fill="#AFAFAF"/>
<path d="M42.5196 127.08C41.084 127.559 39.7852 129.008 39.4844 130.471C39.1426 132.07 39.9219 133.807 41.4258 134.832C42.8887 135.844 44.5567 135.857 46.0332 134.873C48.4532 133.26 48.7813 130.252 46.7578 128.242C45.5957 127.066 43.9278 126.615 42.5196 127.08Z" fill="#AFAFAF"/>
<path d="M60.0196 127.08C58.584 127.559 57.2852 129.008 56.9844 130.471C56.6426 132.07 57.4219 133.807 58.9258 134.832C60.3887 135.844 62.0567 135.857 63.5332 134.873C65.9532 133.26 66.2813 130.252 64.2578 128.242C63.0957 127.066 61.4278 126.615 60.0196 127.08Z" fill="#AFAFAF"/>
<path d="M77.5195 127.08C75.455 127.764 74.0605 130.033 74.4843 132.029C74.8261 133.656 76.3437 135.174 77.9707 135.516C80.6093 136.076 83.3574 133.574 83.084 130.881C82.9336 129.445 81.8535 127.969 80.4863 127.299C79.6523 126.902 78.3672 126.807 77.5195 127.08Z" fill="#AFAFAF"/>
<path d="M95.0195 127.08C92.955 127.764 91.5605 130.033 91.9843 132.029C92.3261 133.656 93.8437 135.174 95.4707 135.516C98.1093 136.076 100.857 133.574 100.584 130.881C100.434 129.445 99.3535 127.969 97.9863 127.299C97.1523 126.902 95.8672 126.807 95.0195 127.08Z" fill="#AFAFAF"/>
<path d="M112.519 127.08C110.455 127.764 109.061 130.033 109.484 132.029C109.826 133.656 111.344 135.174 112.971 135.516C115.609 136.076 118.357 133.574 118.084 130.881C117.934 129.445 116.853 127.969 115.486 127.299C114.652 126.902 113.367 126.807 112.519 127.08Z" fill="#AFAFAF"/>
<path d="M130.019 127.08C127.955 127.764 126.561 130.033 126.984 132.029C127.326 133.656 128.844 135.174 130.471 135.516C133.109 136.076 135.857 133.574 135.584 130.881C135.434 129.445 134.353 127.969 132.986 127.299C132.152 126.902 130.867 126.807 130.019 127.08Z" fill="#AFAFAF"/>
<path d="M147.52 127.08C146.084 127.559 144.785 129.008 144.484 130.471C143.896 133.287 146.713 136.104 149.529 135.516C151.648 135.078 153.289 132.918 153.084 130.881C152.934 129.445 151.854 127.969 150.486 127.299C149.652 126.902 148.367 126.807 147.52 127.08Z" fill="#AFAFAF"/>
<path d="M165.02 127.08C163.584 127.559 162.285 129.008 161.984 130.471C161.396 133.287 164.213 136.104 167.029 135.516C169.148 135.078 170.789 132.918 170.584 130.881C170.434 129.445 169.354 127.969 167.986 127.299C167.152 126.902 165.867 126.807 165.02 127.08Z" fill="#AFAFAF"/>
<path d="M7.51953 144.58C6.08398 145.059 4.78515 146.508 4.48437 147.971C3.89648 150.787 6.71289 153.604 9.5293 153.016C11.6484 152.578 13.2891 150.418 13.084 148.381C12.9336 146.945 11.8535 145.469 10.4863 144.799C9.65234 144.402 8.36719 144.307 7.51953 144.58Z" fill="#AFAFAF"/>
<path d="M25.0195 144.58C23.584 145.059 22.2852 146.508 21.9844 147.971C21.3965 150.787 24.2129 153.604 27.0293 153.016C29.1484 152.578 30.7891 150.418 30.584 148.381C30.4336 146.945 29.3535 145.469 27.9863 144.799C27.1523 144.402 25.8672 144.307 25.0195 144.58Z" fill="#AFAFAF"/>
<path d="M42.5196 144.58C41.084 145.059 39.7852 146.508 39.4844 147.971C39.1426 149.57 39.9219 151.307 41.4258 152.332C42.8887 153.344 44.5567 153.357 46.0332 152.373C48.4532 150.76 48.7813 147.752 46.7578 145.742C45.5957 144.566 43.9278 144.115 42.5196 144.58Z" fill="#AFAFAF"/>
<path d="M60.0196 144.58C58.584 145.059 57.2852 146.508 56.9844 147.971C56.6426 149.57 57.4219 151.307 58.9258 152.332C60.3887 153.344 62.0567 153.357 63.5332 152.373C65.9532 150.76 66.2813 147.752 64.2578 145.742C63.0957 144.566 61.4278 144.115 60.0196 144.58Z" fill="#AFAFAF"/>
<path d="M77.5195 144.58C76.084 145.059 74.7852 146.508 74.4844 147.971C73.8965 150.787 76.7129 153.604 79.5293 153.016C81.6484 152.578 83.2891 150.418 83.084 148.381C82.9336 146.945 81.8535 145.469 80.4863 144.799C79.6523 144.402 78.3672 144.307 77.5195 144.58Z" fill="#AFAFAF"/>
<path d="M95.0195 144.58C93.584 145.059 92.2852 146.508 91.9844 147.971C91.3965 150.787 94.2129 153.604 97.0293 153.016C99.1484 152.578 100.789 150.418 100.584 148.381C100.434 146.945 99.3535 145.469 97.9863 144.799C97.1523 144.402 95.8672 144.307 95.0195 144.58Z" fill="#AFAFAF"/>
<path d="M112.52 144.58C111.084 145.059 109.785 146.508 109.484 147.971C108.896 150.787 111.713 153.604 114.529 153.016C116.648 152.578 118.289 150.418 118.084 148.381C117.934 146.945 116.854 145.469 115.486 144.799C114.652 144.402 113.367 144.307 112.52 144.58Z" fill="#AFAFAF"/>
<path d="M130.02 144.58C128.584 145.059 127.285 146.508 126.984 147.971C126.396 150.787 129.213 153.604 132.029 153.016C134.148 152.578 135.789 150.418 135.584 148.381C135.434 146.945 134.354 145.469 132.986 144.799C132.152 144.402 130.867 144.307 130.02 144.58Z" fill="#AFAFAF"/>
<path d="M147.52 144.58C146.084 145.059 144.785 146.508 144.484 147.971C143.896 150.787 146.713 153.604 149.529 153.016C151.648 152.578 153.289 150.418 153.084 148.381C152.934 146.945 151.854 145.469 150.486 144.799C149.652 144.402 148.367 144.307 147.52 144.58Z" fill="#AFAFAF"/>
<path d="M165.02 144.58C163.584 145.059 162.285 146.508 161.984 147.971C161.396 150.787 164.213 153.604 167.029 153.016C169.148 152.578 170.789 150.418 170.584 148.381C170.434 146.945 169.354 145.469 167.986 144.799C167.152 144.402 165.867 144.307 165.02 144.58Z" fill="#AFAFAF"/>
<path d="M7.51953 162.08C6.08398 162.559 4.78515 164.008 4.48437 165.471C3.89648 168.287 6.71289 171.104 9.5293 170.516C11.6484 170.078 13.2891 167.918 13.084 165.881C12.9336 164.445 11.8535 162.969 10.4863 162.299C9.65234 161.902 8.36719 161.807 7.51953 162.08Z" fill="#AFAFAF"/>
<path d="M25.0195 162.08C23.584 162.559 22.2852 164.008 21.9844 165.471C21.3965 168.287 24.2129 171.104 27.0293 170.516C29.1484 170.078 30.7891 167.918 30.584 165.881C30.4336 164.445 29.3535 162.969 27.9863 162.299C27.1523 161.902 25.8672 161.807 25.0195 162.08Z" fill="#AFAFAF"/>
<path d="M42.5195 162.08C41.084 162.559 39.7852 164.008 39.4844 165.471C38.8965 168.287 41.7129 171.104 44.5293 170.516C46.6484 170.078 48.2891 167.918 48.084 165.881C47.9336 164.445 46.8535 162.969 45.4863 162.299C44.6523 161.902 43.3672 161.807 42.5195 162.08Z" fill="#AFAFAF"/>
<path d="M60.0195 162.08C58.584 162.559 57.2852 164.008 56.9844 165.471C56.3965 168.287 59.2129 171.104 62.0293 170.516C64.1484 170.078 65.7891 167.918 65.584 165.881C65.4336 164.445 64.3535 162.969 62.9863 162.299C62.1523 161.902 60.8672 161.807 60.0195 162.08Z" fill="#AFAFAF"/>
<path d="M77.5195 162.08C76.084 162.559 74.7852 164.008 74.4844 165.471C73.8965 168.287 76.7129 171.104 79.5293 170.516C81.6484 170.078 83.2891 167.918 83.084 165.881C82.9336 164.445 81.8535 162.969 80.4863 162.299C79.6523 161.902 78.3672 161.807 77.5195 162.08Z" fill="#AFAFAF"/>
<path d="M95.0195 162.08C93.584 162.559 92.2852 164.008 91.9844 165.471C91.3965 168.287 94.2129 171.104 97.0293 170.516C99.1484 170.078 100.789 167.918 100.584 165.881C100.434 164.445 99.3535 162.969 97.9863 162.299C97.1523 161.902 95.8672 161.807 95.0195 162.08Z" fill="#AFAFAF"/>
<path d="M112.52 162.08C111.084 162.559 109.785 164.008 109.484 165.471C108.896 168.287 111.713 171.104 114.529 170.516C116.648 170.078 118.289 167.918 118.084 165.881C117.934 164.445 116.854 162.969 115.486 162.299C114.652 161.902 113.367 161.807 112.52 162.08Z" fill="#AFAFAF"/>
<path d="M130.02 162.08C128.584 162.559 127.285 164.008 126.984 165.471C126.396 168.287 129.213 171.104 132.029 170.516C134.148 170.078 135.789 167.918 135.584 165.881C135.434 164.445 134.354 162.969 132.986 162.299C132.152 161.902 130.867 161.807 130.02 162.08Z" fill="#AFAFAF"/>
<path d="M147.52 162.08C146.084 162.559 144.785 164.008 144.484 165.471C143.896 168.287 146.713 171.104 149.529 170.516C151.648 170.078 153.289 167.918 153.084 165.881C152.934 164.445 151.854 162.969 150.486 162.299C149.652 161.902 148.367 161.807 147.52 162.08Z" fill="#AFAFAF"/>
<path d="M165.02 162.08C163.584 162.559 162.285 164.008 161.984 165.471C161.396 168.287 164.213 171.104 167.029 170.516C169.148 170.078 170.789 167.918 170.584 165.881C170.434 164.445 169.354 162.969 167.986 162.299C167.152 161.902 165.867 161.807 165.02 162.08Z" fill="#AFAFAF"/>
</svg>
