<svg xmlns="http://www.w3.org/2000/svg" width="1221" height="1424" fill="none" viewBox="0 0 1221 1424"><path fill="#fff" fill-rule="evenodd" d="M464.896 0C537.473 0 605.667 6.73217 669.477 20.1965L522.753 192.439C504.019 191.122 484.733 190.464 464.896 190.464H233.472V1232.9H464.896C483.024 1232.9 500.692 1232.36 517.899 1231.3L667.417 1404.51C604.2 1417.08 536.693 1423.36 464.896 1423.36H-9.15527e-05V0H464.896ZM748.892 1384.12C788.578 1372.02 826.35 1357.11 862.208 1339.39C897.88 1321.56 930.976 1301.34 961.496 1278.75L822.399 1121.45C764.768 1170.62 693.086 1203.52 607.352 1220.15L748.892 1384.12ZM1018.97 1230.53L874.84 1067.53C945.608 980.017 980.992 863.106 980.992 716.8C980.992 566.187 944.111 445.646 870.35 355.177L1012.28 191.662C1057.18 233.733 1095.22 282.485 1126.4 337.92C1189.21 445.781 1220.61 572.075 1220.61 716.8C1220.61 861.525 1189.21 987.136 1126.4 1093.63C1096.78 1144.98 1060.97 1190.61 1018.97 1230.53ZM954.434 143.89C925.888 123.142 895.146 104.533 862.208 88.0641C827.708 70.1906 791.436 55.0378 753.393 42.6057L614.92 205.163C695.067 222.273 762.693 254.32 817.797 301.306L954.434 143.89Z" clip-rule="evenodd"/><path fill="#fff" fill-rule="evenodd" d="M750.121 1383.75L233.472 786.432V1423.36H0.399994V0.360107L233.472 0.360107V649.216L750.848 41.7787C789.819 54.3639 826.939 69.7923 862.208 88.0641C895.144 104.532 925.885 123.14 954.429 143.886L460.8 712.704L961.557 1278.71C931.02 1301.32 897.904 1321.54 862.208 1339.39C826.72 1356.92 789.358 1371.71 750.121 1383.75ZM0 1423.36H9.15527e-05V0H0V1423.36Z" clip-rule="evenodd"/></svg>