<svg xmlns="http://www.w3.org/2000/svg" xmlns:xlink="http://www.w3.org/1999/xlink" width="1024" height="1024" fill="none" viewBox="0 0 1024 1024"><path fill="#fff" d="M89.7778 828.709C73.9444 828.709 63.3889 823.432 52.8333 812.879C31.7222 791.773 31.7222 760.114 52.8333 739.008L332.556 459.354L52.8333 179.7C31.7222 158.594 31.7222 126.935 52.8333 105.829C73.9444 84.7235 105.611 84.7235 126.722 105.829L443.389 422.419C464.5 443.525 464.5 475.184 443.389 496.29L126.722 812.879C116.167 823.432 105.611 828.709 89.7778 828.709V828.709ZM934.222 934.238H512C480.333 934.238 459.222 913.132 459.222 881.473C459.222 849.815 480.333 828.709 512 828.709H934.222C965.889 828.709 987 849.815 987 881.473C987 913.132 965.889 934.238 934.222 934.238Z"/></svg>